<?xml version="1.0" encoding="utf-8"?>
<!-- Generator: Adobe Illustrator 26.0.0, SVG Export Plug-In . SVG Version: 6.00 Build 0)  -->
<svg version="1.1" id="레이어_1" xmlns="http://www.w3.org/2000/svg" xmlns:xlink="http://www.w3.org/1999/xlink" x="0px"
	 y="0px" viewBox="0 0 82 24" style="enable-background:new 0 0 82 24;" xml:space="preserve">
<style type="text/css">
	.st0{fill-rule:evenodd;clip-rule:evenodd;fill:#FFFFFF;}
</style>
<path class="st0" d="M58.4,12c0,6.6-4.6,12-11.8,12c-7.1,0-11.8-5.4-11.8-12c0-6.6,4.5-12,11.8-12C53.9,0,58.4,5.4,58.4,12z
	 M0.2,0.5h10.6C20,0.5,23.6,6.1,23.6,12c0,6.1-4.6,11.5-13.3,11.5h-10c-0.2,0-0.2-0.1-0.2-0.2C0,23.1,0.1,23,0.3,23h1.9
	c0.6,0,1-0.4,1-1V2c0-0.5-0.2-1.1-1-1.1H0.2C0.1,0.9,0,0.8,0,0.7C0,0.6,0,0.5,0.2,0.5z M6.9,22.4c0,0.5,0.2,0.7,0.5,0.7h2.8
	c6.9,0,9.5-5.6,9.5-11.2c0-5.6-2.7-11-8.5-11H7.3c-0.4,0-0.4,0.3-0.4,0.5L6.9,22.4z M24.4,0.7c0-0.1,0.1-0.2,0.3-0.2v0h9
	c0.2,0,0.3,0.1,0.3,0.2s-0.1,0.2-0.2,0.2H32c-0.6,0-1,0.4-1,1v20.2c0,0.8,0.7,1,0.9,1h1.7c0.2,0,0.3,0.1,0.3,0.3
	c0,0.1-0.2,0.2-0.3,0.2h-9c-0.2,0-0.2-0.1-0.2-0.2l0,0c0-0.1,0-0.2,0.2-0.2h1.9c0.5,0,0.8-0.6,0.8-1V2.1c0-0.9-0.4-1.2-0.8-1.2h-1.9
	C24.5,0.9,24.4,0.8,24.4,0.7z M38.8,12c0-6.4,2.7-11.5,7.8-11.5c5,0,7.8,5.2,7.8,11.5c0,6.4-2.6,11.5-7.8,11.5
	C41.5,23.5,38.8,18.4,38.8,12z M76.8,18.4L76.8,18.4c-0.4-0.7-0.7-1.4-1-1.9c-1.1-1.7-3.4-3.5-5.6-3.8c3.7-0.2,7.9-1.5,7.9-5.9
	c0-3.6-2.1-6.3-9.8-6.3h-8.9c-0.1,0-0.2,0.1-0.2,0.2c0,0.1,0.1,0.2,0.2,0.2h2c0.4,0,0.8,0.3,0.8,1.2V22c0,0.4-0.3,1-0.8,1h-2
	c-0.2,0-0.2,0.1-0.2,0.2c0,0.1,0.1,0.2,0.2,0.2h9.4c0.1,0,0.2-0.1,0.2-0.2s-0.1-0.2-0.3-0.2h-1.9c-0.2,0-0.9-0.2-0.9-1v-9.4h1
	c3.2,0,4.4,2.5,5.6,5.1c0.5,1.1,1.1,2.3,1.8,3.2c2,2.6,4.6,2.9,6.1,2.9c0.6,0,1.1,0,1.5-0.1c0.2-0.1,0.3-0.5-0.1-0.5
	C79.4,23.6,78,20.7,76.8,18.4z M68.3,0.9h-1.4c-0.6,0-1,0.4-1,1v10.4h2c3.1,0,6.5-1.4,6.5-5.7C74.4,1.9,70.6,0.9,68.3,0.9z"/>
</svg>
